<mxfile host="65bd71144e">
    <diagram id="uSNn6HCtJBiZXrpxF_R4" name="Page-1">
        <mxGraphModel dx="743" dy="543" grid="1" gridSize="10" guides="1" tooltips="1" connect="1" arrows="1" fold="1" page="1" pageScale="1" pageWidth="850" pageHeight="1100" math="0" shadow="0">
            <root>
                <mxCell id="0"/>
                <mxCell id="1" parent="0"/>
                <mxCell id="9" value="" style="group" vertex="1" connectable="0" parent="1">
                    <mxGeometry x="120" y="240" width="160" height="60" as="geometry"/>
                </mxCell>
                <mxCell id="6" value="Onboard EMMC (32GB)" style="rounded=1;whiteSpace=wrap;html=1;verticalAlign=bottom;" vertex="1" parent="9">
                    <mxGeometry width="160" height="60" as="geometry"/>
                </mxCell>
                <mxCell id="7" value="NixOS" style="rounded=1;whiteSpace=wrap;html=1;" vertex="1" parent="9">
                    <mxGeometry x="10" y="10" width="140" height="30" as="geometry"/>
                </mxCell>
                <mxCell id="10" value="" style="group" vertex="1" connectable="0" parent="1">
                    <mxGeometry x="320" y="240" width="240" height="60" as="geometry"/>
                </mxCell>
                <mxCell id="2" value="SD Card (128GB)" style="rounded=1;whiteSpace=wrap;html=1;verticalAlign=bottom;" vertex="1" parent="10">
                    <mxGeometry width="240" height="60" as="geometry"/>
                </mxCell>
                <mxCell id="3" value="Tow Boot" style="rounded=1;whiteSpace=wrap;html=1;" vertex="1" parent="10">
                    <mxGeometry x="10" y="10" width="70" height="30" as="geometry"/>
                </mxCell>
                <mxCell id="4" value="Encrypted ZFS Storage" style="rounded=1;whiteSpace=wrap;html=1;" vertex="1" parent="10">
                    <mxGeometry x="90" y="10" width="140" height="30" as="geometry"/>
                </mxCell>
            </root>
        </mxGraphModel>
    </diagram>
</mxfile>